<svg xmlns="http://www.w3.org/2000/svg" width="128" height="128" version="1.1" viewBox="0 0 128 128">
  <g id="Page-1" fill="none" fill-rule="evenodd" stroke="none" stroke-width="1">
    <g id="js-logo" fill="#FFFFFF" fill-rule="nonzero">
      <path id="Combined-Shape" d="M24,24 L104,24 L104,104 L24,104 L24,24 Z M77.7549206,86.5142857 L71.6457143,90.0634921 C73.8526984,94.424127 78.3631746,97.7511111 85.3447619,97.7511111 C92.4850794,97.7511111 97.8019048,94.0431746 97.8019048,87.2749206 C97.8019048,80.9968254 94.1955556,78.2044444 87.808254,75.4653968 L85.9288889,74.6603175 C82.7034921,73.2634921 81.3066667,72.3504762 81.3066667,70.0952381 C81.3066667,68.2704762 82.7022222,66.8736508 84.904127,66.8736508 C87.0628571,66.8736508 88.4533333,67.784127 89.7422222,70.0952381 L95.5961905,66.3365079 C93.12,61.9809524 89.6838095,60.3174603 84.904127,60.3174603 C78.1904762,60.3174603 73.8946032,64.6095238 73.8946032,70.247619 C73.8946032,76.368254 77.4984127,79.2634921 82.9231746,81.5746032 L84.8025397,82.3809524 C88.2311111,83.8806349 90.2755556,84.7936508 90.2755556,87.3714286 C90.2755556,89.5225397 88.2857143,91.0793651 85.1707937,91.0793651 C81.4628571,91.0793651 79.3663492,89.1453968 77.7549206,86.5142857 Z M51.1987302,87.1657143 L45.0793651,90.8704762 C46.8520635,94.6222222 50.3377778,97.7371429 56.3568254,97.7371429 C63.0184127,97.7371429 67.5822222,94.1942857 67.5822222,86.4101587 L67.5822222,60.7466667 L60.0647619,60.7466667 L60.0647619,86.3085714 C60.0647619,90.0660317 58.5066667,91.032381 56.0368254,91.032381 C53.4539683,91.032381 52.3796825,89.2609524 51.1987302,87.1657143 Z"/>
    </g>
  </g>
</svg>
