<svg xmlns="http://www.w3.org/2000/svg" width="128" height="128" version="1.1" viewBox="0 0 128 128">
  <g id="Page-1" fill="none" fill-rule="evenodd" stroke="none" stroke-width="1">
    <g id="js-logo" fill="#FFFFFF" fill-rule="nonzero">
      <path id="Combined-Shape" d="M28,28 L100,28 L100,100 L28,100 L28,28 Z M76.3794286,84.2628571 L70.8811429,87.4571429 C72.8674286,91.3817143 76.9268571,94.376 83.2102857,94.376 C89.6365714,94.376 94.4217143,91.0388571 94.4217143,84.9474286 C94.4217143,79.2971429 91.176,76.784 85.4274286,74.3188571 L83.736,73.5942857 C80.8331429,72.3371429 79.576,71.5154286 79.576,69.4857143 C79.576,67.8434286 80.832,66.5862857 82.8137143,66.5862857 C84.7565714,66.5862857 86.008,67.4057143 87.168,69.4857143 L92.4365714,66.1028571 C90.208,62.1828571 87.1154286,60.6857143 82.8137143,60.6857143 C76.7714286,60.6857143 72.9051429,64.5485714 72.9051429,69.6228571 C72.9051429,75.1314286 76.1485714,77.7371429 81.0308571,79.8171429 L82.7222857,80.5428571 C85.808,81.8925714 87.648,82.7142857 87.648,85.0342857 C87.648,86.9702857 85.8571429,88.3714286 83.0537143,88.3714286 C79.7165714,88.3714286 77.8297143,86.6308571 76.3794286,84.2628571 Z M52.4788571,84.8491429 L46.9714286,88.1834286 C48.5668571,91.56 51.704,94.3634286 57.1211429,94.3634286 C63.1165714,94.3634286 67.224,91.1748571 67.224,84.1691429 L67.224,61.072 L60.4582857,61.072 L60.4582857,84.0777143 C60.4582857,87.4594286 59.056,88.3291429 56.8331429,88.3291429 C54.5085714,88.3291429 53.5417143,86.7348571 52.4788571,84.8491429 Z"/>
    </g>
  </g>
</svg>
