<svg xmlns="http://www.w3.org/2000/svg" width="128" height="128" version="1.1" viewBox="0 0 128 128">
  <g id="Page-1" fill="none" fill-rule="evenodd" stroke="none" stroke-width="1">
    <g id="next-logo" fill="#FFFFFF" fill-rule="nonzero">
      <g id="NextJS" transform="translate(7.000000, 28.000000)">
        <g id="EXT-+-Type-something">
          <path id="EXT" d="M28.125,18.7679429 L50.7099056,18.7679429 L50.7099056,20.5560284 L30.195283,20.5560284 L30.195283,34.0137242 L49.4865566,34.0137242 L49.4865566,35.8018096 L30.195283,35.8018096 L30.195283,50.5770422 L50.9451651,50.5770422 L50.9451651,52.3651276 L28.125,52.3651276 L28.125,18.7679429 Z M52.7331367,18.7679429 L55.132783,18.7679429 L65.7665094,33.5431754 L76.6354953,18.7679429 L91.4190879,0 L67.1310142,35.0959864 L79.6468161,52.3651276 L77.1530661,52.3651276 L65.7665094,36.6487975 L54.3329009,52.3651276 L51.8862028,52.3651276 L64.4961084,35.0959864 L52.7331367,18.7679429 Z M80.5408019,20.5560284 L80.5408019,18.7679429 L106.278184,18.7679429 L106.278184,20.5560284 L94.4211088,20.5560284 L94.4211088,52.3651276 L92.3508255,52.3651276 L92.3508255,20.5560284 L80.5408019,20.5560284 Z"/>
          <polygon id="Type-something" points="0 18.701 2.588 18.701 38.273 71.892 23.526 52.298 2.164 21.242 2.07 52.298 0 52.298"/>
        </g>
        <path id=".JS" d="M105.740204,49.5862927 C106.168213,49.5862927 106.480407,49.2598418 106.480407,48.8379667 C106.480407,48.4160917 106.168213,48.0896408 105.740204,48.0896408 C105.31723,48.0896408 105,48.4160917 105,48.8379667 C105,49.2598418 105.31723,49.5862927 105.740204,49.5862927 Z M107.774505,47.6175426 C107.774505,48.8630784 108.675842,49.6766944 109.990082,49.6766944 C111.389923,49.6766944 112.235871,48.8379667 112.235871,47.3814935 L112.235871,42.2537033 L111.107941,42.2537033 L111.107941,47.3764712 C111.107941,48.1850649 110.700073,48.6169846 109.980011,48.6169846 C109.33548,48.6169846 108.897399,48.2151989 108.882293,47.6175426 L107.774505,47.6175426 Z M113.711243,47.5522524 C113.791809,48.8480114 114.87442,49.6766944 116.485748,49.6766944 C118.207855,49.6766944 119.285431,48.8078328 119.285431,47.4216721 C119.285431,46.3318283 118.671112,45.7291498 117.180634,45.3826096 L116.380005,45.186739 C115.433349,44.9657569 115.050659,44.66944 115.050659,44.1521408 C115.050659,43.499239 115.644836,43.0723418 116.536102,43.0723418 C117.382049,43.0723418 117.966156,43.4891944 118.071899,44.1571631 L119.169617,44.1571631 C119.104156,42.936739 118.02658,42.0779221 116.551208,42.0779221 C114.965057,42.0779221 113.907623,42.936739 113.907623,44.2274756 C113.907623,45.2922078 114.506836,45.9250203 115.821075,46.2313819 L116.75766,46.4573864 C117.719422,46.6833909 118.142395,47.0148641 118.142395,47.5673194 C118.142395,48.2101766 117.477722,48.6772524 116.57135,48.6772524 C115.599518,48.6772524 114.924774,48.2403104 114.829102,47.5522524 L113.711243,47.5522524 Z"/>
      </g>
    </g>
  </g>
</svg>
