<svg xmlns="http://www.w3.org/2000/svg" width="128" height="128" version="1.1" viewBox="0 0 128 128">
  <g id="Page-1" fill="none" fill-rule="evenodd" stroke="none" stroke-width="1">
    <g id="react-logo">
      <g id="logo" transform="translate(23.000000, 28.000000)">
        <circle id="Oval" cx="41" cy="36" r="7" fill="#FFFFFF" fill-rule="nonzero"/>
        <path id="Shape" stroke="#FFFFFF" stroke-width="3" d="M40.92935,20.6442 C51.03275,20.6442 60.41855,22.09395 67.4954,24.53025 C76.022,27.4656 81.2645,31.9152 81.2645,35.9442 C81.2645,40.14285 75.70835,44.86965 66.55205,47.9034 C59.6294,50.19705 50.5202,51.3942 40.92935,51.3942 C31.09625,51.3942 21.78485,50.2704 14.78585,47.87805 C5.92895,44.85075 0.5942,40.0626 0.5942,35.9442 C0.5942,31.9479 5.5997,27.5328 14.00645,24.6018 C21.1097,22.12545 30.72725,20.6442 40.92935,20.6442 Z"/>
        <path id="Shape" stroke="#FFFFFF" stroke-width="3" d="M27.6104,28.3383 C32.65775,19.5861 38.60255,12.1797 44.2484,7.2663 C51.0509,1.3464 57.52445,-0.97215 61.01465,1.04055 C64.65185,3.138 65.97095,10.31265 64.0247,19.75995 C62.5532,26.90265 59.0396,35.39175 54.2483,43.7001 C49.33595,52.2183 43.7108,59.72295 38.14175,64.5909 C31.0946,70.7511 24.28175,72.98025 20.714,70.92285 C17.25215,68.92635 15.9281,62.3847 17.5889,53.6379 C18.99215,46.2474 22.5137,37.17615 27.6104,28.3383 Z"/>
        <path id="Shape" stroke="#FFFFFF" stroke-width="3" d="M27.62315,43.7223 C22.56125,34.9785 19.1135,26.12925 17.67635,18.78405 C15.94475,9.9342 17.16905,3.1677 20.65595,1.14915 C24.28955,-0.95445 31.1642,1.48575 38.37695,7.89015 C43.83035,12.73215 49.43015,20.0157 54.2354,28.3161 C59.162,36.82605 62.85455,45.44745 64.2908,52.7034 C66.10835,61.88535 64.63715,68.901 61.07285,70.9644 C57.6143,72.9666 51.2855,70.8468 44.537,65.03955 C38.83505,60.1329 32.7347,52.5516 27.62315,43.7223 Z"/>
      </g>
    </g>
  </g>
</svg>
