<svg xmlns="http://www.w3.org/2000/svg" width="80" height="80" version="1.1" viewBox="0 0 80 80">
  <g id="Page-1" fill="none" fill-rule="evenodd" stroke="none" stroke-linecap="round" stroke-linejoin="round" stroke-width="1">
    <g id="telescope" stroke="#FFFFFF" stroke-width="2">
      <g transform="translate(4.000000, 5.000000)">
        <path id="Combined-Shape" d="M31.6046066,32.1309364 L19,32.1309364 C18.4477153,32.1309364 18,31.6832211 18,31.1309364 L18,30.1309364 L10,30.1309364 L10,31.1309364 C10,31.6832211 9.55228475,32.1309364 9,32.1309364 L3,32.1309364 C2.44771525,32.1309364 2,31.6832211 2,31.1309364 L2,21.1309364 C2,20.5786516 2.44771525,20.1309364 3,20.1309364 L3,20.1309364 L9,20.1309364 C9.55228475,20.1309364 10,20.5786516 10,21.1309364 L10,22.1309364 L18,22.1309364 L18,21.1309364 C18,20.5786516 18.4477153,20.1309364 19,20.1309364 L32,20.1309364 L32,19.1309364 C32,18.5786516 32.4477153,18.1309364 33,18.1309364 L46,18.1309364 L46,16.1309364 L46,16.1309364 C46,15.5786516 46.4477153,15.1309364 47,15.1309364 L59,15.1309364 C59.5522847,15.1309364 60,15.5786516 60,16.1309364 L60,36.1309364 C60,36.6832211 59.5522847,37.1309364 59,37.1309364 L47,37.1309364 C46.4477153,37.1309364 46,36.6832211 46,36.1309364 L46,34.1309364 L36.8420513,34.1309364 C36.8412428,35.7871028 35.4984071,37.1294398 33.8420517,37.1294398 C32.1851974,37.1294398 30.8420517,35.7862941 30.8420517,34.1294398 C30.8420517,33.3618074 31.1303627,32.6615135 31.6046066,32.1309364 Z" transform="translate(31.000000, 26.130936) rotate(325.000000) translate(-31.000000, -26.130936)"/>
        <g id="Group" transform="translate(22.000000, 34.000000)">
          <path id="Line" d="M16,7.10542736e-15 L16,28.5365854"/>
          <path id="Line" d="M16,0 L32,35.5609756"/>
          <path id="Line" d="M16,0 L0,35.5609756"/>
        </g>
      </g>
      <path id="Oval" d="M65.3971964,18.1741631 C65.3971964,13.2795557 62.4667737,9.06938511 58.264677,7.20240009" transform="translate(59.397196, 18.688282) rotate(-2.000000) translate(-59.397196, -18.688282)"/>
    </g>
  </g>
</svg>
