<svg xmlns="http://www.w3.org/2000/svg" width="128" height="128" version="1.1" viewBox="0 0 128 128">
  <g id="Page-1" fill="none" fill-rule="evenodd" stroke="none" stroke-width="1">
    <g id="threejs-logo" fill="#FFFFFF">
      <path id="Three.js" d="M9,52.2705602 L22.4426983,52.2705602 L22.4426983,54.2228844 L16.7171046,54.2228844 L16.7171046,71.6078665 L14.5077722,71.6078665 L14.5077722,54.2228844 L9,54.2228844 L9,52.2705602 Z M25.6113037,71.6078665 L25.6113037,51 L28.1940443,51 C28.1940443,51.0206596 28.1992305,51.0309893 28.209603,51.0309893 C28.2199755,51.0309893 28.2251617,51.0413189 28.2251617,51.0619785 C28.2251617,51.1239574 28.1784861,51.2117595 28.0851336,51.3253874 C27.991781,51.4390153 27.9243608,51.5784656 27.8828707,51.7437426 L27.8828707,59.9558999 C28.442986,59.0881959 29.1431195,58.3961091 29.9832923,57.8796186 C30.8234652,57.3631281 31.679184,57.1048868 32.5504743,57.1048868 C33.1935696,57.1048868 33.7796073,57.2133481 34.308605,57.4302741 C34.8376027,57.6472001 35.2991722,57.9932436 35.6933274,58.4684148 C36.0874825,58.943586 36.3882807,59.5530356 36.5957307,60.2967819 C36.8031808,61.0405282 36.9069043,61.9495377 36.9069043,63.0238379 L36.9069043,71.6078665 L34.697572,71.6078665 L34.697572,63.0858164 C34.697572,61.5983239 34.4434494,60.5550288 33.9351967,59.9558999 C33.426944,59.3567709 32.8097893,59.057211 32.083714,59.057211 C31.6065788,59.057211 31.1294507,59.1605075 30.6523155,59.3671037 C30.1751803,59.5736999 29.7136108,59.8629302 29.2675931,60.2348033 C28.8215754,60.6066765 28.4792879,61.0611813 28.2407203,61.5983313 C28.0021527,62.1354814 27.8828707,62.7552607 27.8828707,63.4576877 L27.8828707,71.6078665 L25.6113037,71.6078665 Z M41.9114338,57.4457688 L44.2452355,57.4457688 L44.1830008,60.1728248 C44.618646,59.1811631 45.3084072,58.4219335 46.2523051,57.8951132 C47.196203,57.368293 48.207507,57.1048868 49.2862474,57.1048868 C50.821378,57.1048868 52.0868046,57.6213695 53.082565,58.6543504 L52.0556922,60.7926103 C51.8274971,60.482716 51.6200501,60.2244746 51.433345,60.0178784 C51.24664,59.8112822 51.0443792,59.6356781 50.8265566,59.4910608 C50.608734,59.3464435 50.37017,59.2328173 50.1108574,59.1501788 C49.8515448,59.0675403 49.5351881,59.0262217 49.161778,59.0262217 C48.4771927,59.0262217 47.8341071,59.1863313 47.2325018,59.5065554 C46.6308966,59.8267795 46.107093,60.2502953 45.6610753,60.7771156 C45.2150576,61.3039359 44.8572116,61.9082207 44.5875265,62.5899881 C44.3178414,63.2717555 44.1830008,63.9845016 44.1830008,64.7282479 L44.1830008,71.6388558 L41.9114338,71.6388558 L41.9114338,57.4457688 Z M61.2149253,57.1048868 C61.9617456,57.1048868 62.68781,57.2391723 63.3931403,57.5077473 C64.0984706,57.7763224 64.7156254,58.1843437 65.2446231,58.7318236 C65.7736208,59.2793035 66.1988871,59.9765552 66.5204347,60.8235995 C66.8419823,61.6706439 67.0027538,62.6726204 67.0027538,63.829559 C67.0027538,63.9948359 66.9975676,64.1652752 66.9871951,64.340882 C66.9768226,64.5164888 66.961264,64.6869281 66.940519,64.852205 L56.827378,64.852205 C56.868868,65.8438667 57.0400117,66.6754039 57.3408143,67.3468415 C57.641617,68.0182791 58.0202077,68.5605859 58.4765979,68.9737783 C58.9329881,69.3869707 59.4412332,69.6813658 60.0013484,69.8569726 C60.5614636,70.0325793 61.1215704,70.1203814 61.6816857,70.1203814 C63.1545813,70.1203814 64.3785184,69.593569 65.3535338,68.5399285 L66.5982281,69.7485101 C65.3950176,71.1946834 63.7354418,71.9177592 61.619451,71.9177592 C60.5822005,71.9177592 59.6331306,71.7576496 58.7722128,71.4374255 C57.9112949,71.1172014 57.1800443,70.6472021 56.5784391,70.0274136 C55.9768339,69.407625 55.5100782,68.6380658 55.178158,67.7187128 C54.8462379,66.7993597 54.6802803,65.7508998 54.6802803,64.5733015 C54.6802803,63.3750437 54.8514241,62.3110893 55.1937167,61.3814064 C55.5360093,60.4517236 56.002765,59.6718347 56.5939978,59.0417163 C57.1852305,58.411598 57.8749917,57.931269 58.663302,57.6007151 C59.4516124,57.2701612 60.3021449,57.1048868 61.2149253,57.1048868 Z M56.92073,63.1168057 L64.7311867,63.1168057 C64.7311867,63.0341672 64.7363729,62.9566948 64.7467454,62.8843862 C64.7571179,62.8120775 64.762304,62.7242754 64.762304,62.6209774 C64.762304,62.1044869 64.6637667,61.6138283 64.4666891,61.1489869 C64.2696116,60.6841455 64.0051167,60.281289 63.6731965,59.9404052 C63.3412764,59.5995215 62.9523133,59.3257857 62.5062956,59.1191895 C62.060278,58.9125933 61.5779637,58.8092968 61.0593385,58.8092968 C60.0843231,58.8092968 59.2026735,59.1553402 58.4143632,59.8474374 C57.6260528,60.5395346 57.1281801,61.6293132 56.92073,63.1168057 Z M76.6126521,57.1048868 C77.3594724,57.1048868 78.0855368,57.2391723 78.7908671,57.5077473 C79.4961973,57.7763224 80.1133521,58.1843437 80.6423498,58.7318236 C81.1713475,59.2793035 81.5966138,59.9765552 81.9181614,60.8235995 C82.2397091,61.6706439 82.4004805,62.6726204 82.4004805,63.829559 C82.4004805,63.9948359 82.3952943,64.1652752 82.3849218,64.340882 C82.3745493,64.5164888 82.3589908,64.6869281 82.3382458,64.852205 L72.2251047,64.852205 C72.2665947,65.8438667 72.4377385,66.6754039 72.7385411,67.3468415 C73.0393437,68.0182791 73.4179344,68.5605859 73.8743246,68.9737783 C74.3307148,69.3869707 74.8389599,69.6813658 75.3990751,69.8569726 C75.9591904,70.0325793 76.5192972,70.1203814 77.0794124,70.1203814 C78.552308,70.1203814 79.7762452,69.593569 80.7512606,68.5399285 L81.9959548,69.7485101 C80.7927443,71.1946834 79.1331686,71.9177592 77.0171777,71.9177592 C75.9799273,71.9177592 75.0308574,71.7576496 74.1699395,71.4374255 C73.3090217,71.1172014 72.5777711,70.6472021 71.9761658,70.0274136 C71.3745606,69.407625 70.9078049,68.6380658 70.5758848,67.7187128 C70.2439646,66.7993597 70.078007,65.7508998 70.078007,64.5733015 C70.078007,63.3750437 70.2491508,62.3110893 70.5914434,61.3814064 C70.9337361,60.4517236 71.4004918,59.6718347 71.9917245,59.0417163 C72.5829573,58.411598 73.2727184,57.931269 74.0610288,57.6007151 C74.8493391,57.2701612 75.6998717,57.1048868 76.6126521,57.1048868 Z M72.3184568,63.1168057 L80.1289134,63.1168057 C80.1289134,63.0341672 80.1340996,62.9566948 80.1444721,62.8843862 C80.1548446,62.8120775 80.1600308,62.7242754 80.1600308,62.6209774 C80.1600308,62.1044869 80.0614935,61.6138283 79.8644159,61.1489869 C79.6673383,60.6841455 79.4028434,60.281289 79.0709233,59.9404052 C78.7390031,59.5995215 78.3500401,59.3257857 77.9040224,59.1191895 C77.4580047,58.9125933 76.9756905,58.8092968 76.4570653,58.8092968 C75.4820499,58.8092968 74.6004002,59.1553402 73.8120899,59.8474374 C73.0237796,60.5395346 72.5259068,61.6293132 72.3184568,63.1168057 Z M90.5178187,68.9117998 C90.8912288,69.2836729 91.0779311,69.7071887 91.0779311,70.18236 C91.0779311,70.6575312 90.896415,71.0707174 90.5333773,71.4219309 C90.1703397,71.7731444 89.7295149,71.9487485 89.2108897,71.9487485 C88.6922644,71.9487485 88.2566258,71.7783092 87.9039606,71.4374255 C87.5512955,71.0965418 87.3749656,70.6781908 87.3749656,70.18236 C87.3749656,69.6865291 87.5616679,69.2630133 87.935078,68.9117998 C88.3084882,68.5605862 88.7337545,68.3849821 89.2108897,68.3849821 C89.6880248,68.3849821 90.1236635,68.5605862 90.5178187,68.9117998 Z M94.9044354,57.4457688 L102.465953,57.4457688 L102.465953,70.9261025 C102.465953,72.0004027 102.32074,72.9145771 102.03031,73.6686532 C101.73988,74.4227292 101.340545,75.0373437 100.832292,75.5125149 C100.324039,75.9876861 99.7276292,76.3440592 99.0430439,76.5816448 C98.3584587,76.8192304 97.6220219,76.9586808 96.8337116,77 C95.0081508,77 93.556022,76.3389021 92.4772816,75.0166865 L93.9397974,73.0953516 C94.0435224,73.1986497 94.1005703,73.3019462 94.1109428,73.4052443 C94.1213153,73.5085424 94.1576185,73.6221686 94.2198536,73.7461263 C94.2820886,73.8700841 94.4065568,74.0095344 94.5932619,74.1644815 C94.7799669,74.3194287 95.0911374,74.5105273 95.5267826,74.7377831 C95.9831728,74.9650389 96.4706731,75.0786651 96.9892984,75.0786651 C97.9228237,75.0786651 98.6903775,74.7636106 99.2919828,74.1334923 C99.893588,73.5033739 100.194386,72.4755733 100.194386,71.0500596 L100.194386,59.2741359 L94.9044354,59.2741359 L94.9044354,57.4457688 Z M100.194386,51.7437426 C100.505561,51.4338483 100.889338,51.2789035 101.345728,51.2789035 C101.781374,51.2789035 102.159964,51.4338483 102.481512,51.7437426 C102.80306,52.0536368 102.963831,52.435834 102.963831,52.8903456 C102.963831,53.3241976 102.80306,53.6960652 102.481512,54.0059595 C102.159964,54.3158538 101.781374,54.4707986 101.345728,54.4707986 C100.910083,54.4707986 100.531492,54.3158538 100.209945,54.0059595 C99.8883972,53.6960652 99.7276258,53.3241976 99.7276258,52.8903456 C99.7276258,52.435834 99.883211,52.0536368 100.194386,51.7437426 Z M118.751061,59.3361144 L117.444132,61.2884386 C117.340407,61.267779 117.288545,61.1851418 117.288545,61.0405244 C117.288545,60.8959071 117.267801,60.7926106 117.226311,60.7306317 C116.8529,60.2554605 116.323911,59.8164502 115.639325,59.4135876 C114.95474,59.010725 114.176814,58.8092968 113.305524,58.8092968 C112.911368,58.8092968 112.532778,58.8557802 112.16974,58.9487485 C111.806702,59.0417168 111.48516,59.1708375 111.205102,59.3361144 C110.925044,59.5013914 110.702039,59.7131493 110.536079,59.9713945 C110.370119,60.2296397 110.28714,60.5240349 110.28714,60.8545888 C110.28714,61.1025042 110.349374,61.3245918 110.473844,61.5208582 C110.598314,61.7171245 110.795389,61.9082231 111.065074,62.0941597 C111.334759,62.2800963 111.71335,62.4660301 112.200857,62.6519666 C112.688365,62.8379032 113.326265,63.0444963 114.114575,63.2717521 C115.898646,63.7469233 117.158886,64.3098895 117.895334,64.9606675 C118.631782,65.6114454 119,66.4119937 119,67.3623361 C119,67.9821247 118.865159,68.570915 118.595474,69.1287247 C118.325789,69.6865344 117.93164,70.1720281 117.413015,70.5852205 C116.89439,70.9984129 116.272049,71.323797 115.545973,71.5613826 C114.819898,71.7989682 114.000483,71.9177592 113.087702,71.9177592 C110.702026,71.9177592 108.700163,71.1740241 107.082052,69.6865316 L108.357864,67.4553039 C108.420099,67.5172828 108.461588,67.6154145 108.482333,67.749702 C108.503078,67.8839895 108.575685,68.0440992 108.700155,68.2300358 C108.824625,68.4159723 109.052816,68.6277302 109.384737,68.8653159 C109.716657,69.1029015 110.224902,69.3663077 110.909487,69.6555423 C111.220662,69.8001596 111.573322,69.9034562 111.967477,69.965435 C112.361632,70.0274139 112.755782,70.0584029 113.149937,70.0584029 C113.564837,70.0584029 113.984917,70.0067546 114.41019,69.9034565 C114.835462,69.8001584 115.219239,69.6503784 115.561532,69.454112 C115.903825,69.2578457 116.178692,69.0202636 116.386142,68.7413588 C116.593592,68.4624539 116.697316,68.1473995 116.697316,67.7961859 C116.697316,67.2590359 116.448379,66.8045311 115.950499,66.4326579 C115.452619,66.0607848 114.539852,65.6785876 113.212172,65.2860548 C112.299391,65.0174798 111.697795,64.831546 111.407365,64.7282479 C110.660545,64.4390133 110.121182,64.1859367 109.789262,63.9690107 C109.457342,63.7520847 109.156544,63.4938434 108.886859,63.1942789 C108.617174,62.8947144 108.399354,62.5538358 108.233394,62.1716329 C108.067434,61.78943 107.984456,61.371079 107.984456,60.9165673 C107.984456,60.4207365 108.119296,59.9455724 108.388981,59.4910608 C108.658666,59.0365492 109.037257,58.6336927 109.524765,58.2824791 C110.012272,57.9312656 110.593124,57.6472001 111.267337,57.4302741 C111.94155,57.2133481 112.6728,57.1048868 113.46111,57.1048868 C115.639336,57.1048868 117.402636,57.8486219 118.751061,59.3361144 Z"/>
    </g>
  </g>
</svg>
